<mxfile host="app.diagrams.net" modified="2022-11-18T15:05:08.457Z" agent="5.0 (Windows NT 10.0; Win64; x64) AppleWebKit/537.36 (KHTML, like Gecko) Chrome/107.0.0.0 Safari/537.36" etag="BL2MYo6VGO5E64y5cxTg" version="20.5.3" type="github">
  <diagram id="earbVMF5uEPGbMAuAP7y" name="Página-1">
    <mxGraphModel dx="2730" dy="844" grid="1" gridSize="10" guides="1" tooltips="1" connect="1" arrows="1" fold="1" page="1" pageScale="1" pageWidth="827" pageHeight="1169" math="0" shadow="0">
      <root>
        <mxCell id="0" />
        <mxCell id="1" parent="0" />
        <mxCell id="uPqftv9LYSSAp6NvKLLp-6" value="Condição Negociada" style="swimlane;whiteSpace=wrap;html=1;fontSize=16;" vertex="1" parent="1">
          <mxGeometry x="-439" y="30" width="200" height="200" as="geometry" />
        </mxCell>
        <mxCell id="uPqftv9LYSSAp6NvKLLp-7" value="Painel de clientes" style="rounded=0;whiteSpace=wrap;html=1;fontSize=16;" vertex="1" parent="uPqftv9LYSSAp6NvKLLp-6">
          <mxGeometry x="40" y="40" width="120" height="60" as="geometry" />
        </mxCell>
        <mxCell id="uPqftv9LYSSAp6NvKLLp-8" value="Produtos e descontos" style="rounded=0;whiteSpace=wrap;html=1;fontSize=16;" vertex="1" parent="uPqftv9LYSSAp6NvKLLp-6">
          <mxGeometry x="40" y="130" width="120" height="60" as="geometry" />
        </mxCell>
        <mxCell id="uPqftv9LYSSAp6NvKLLp-14" value="" style="edgeStyle=none;curved=1;rounded=0;orthogonalLoop=1;jettySize=auto;html=1;fontSize=12;endArrow=open;startSize=14;endSize=14;sourcePerimeterSpacing=8;targetPerimeterSpacing=8;" edge="1" parent="1" source="uPqftv9LYSSAp6NvKLLp-9" target="uPqftv9LYSSAp6NvKLLp-13">
          <mxGeometry relative="1" as="geometry" />
        </mxCell>
        <mxCell id="uPqftv9LYSSAp6NvKLLp-9" value="Validada a condição na industria" style="whiteSpace=wrap;html=1;fontSize=16;rounded=0;" vertex="1" parent="1">
          <mxGeometry x="-426" y="280" width="174" height="100" as="geometry" />
        </mxCell>
        <mxCell id="uPqftv9LYSSAp6NvKLLp-10" value="" style="edgeStyle=none;curved=1;rounded=0;orthogonalLoop=1;jettySize=auto;html=1;fontSize=12;endArrow=open;startSize=14;endSize=14;sourcePerimeterSpacing=8;targetPerimeterSpacing=8;" edge="1" parent="1" source="uPqftv9LYSSAp6NvKLLp-8" target="uPqftv9LYSSAp6NvKLLp-9">
          <mxGeometry relative="1" as="geometry" />
        </mxCell>
        <mxCell id="uPqftv9LYSSAp6NvKLLp-26" style="edgeStyle=none;curved=1;rounded=0;orthogonalLoop=1;jettySize=auto;html=1;fontSize=12;endArrow=open;startSize=14;endSize=14;sourcePerimeterSpacing=8;targetPerimeterSpacing=8;" edge="1" parent="1" source="uPqftv9LYSSAp6NvKLLp-13" target="uPqftv9LYSSAp6NvKLLp-25">
          <mxGeometry relative="1" as="geometry" />
        </mxCell>
        <mxCell id="uPqftv9LYSSAp6NvKLLp-35" style="edgeStyle=none;curved=1;rounded=0;orthogonalLoop=1;jettySize=auto;html=1;entryX=0;entryY=0.5;entryDx=0;entryDy=0;fontSize=12;endArrow=open;startSize=14;endSize=14;sourcePerimeterSpacing=8;targetPerimeterSpacing=8;" edge="1" parent="1" source="uPqftv9LYSSAp6NvKLLp-13" target="uPqftv9LYSSAp6NvKLLp-33">
          <mxGeometry relative="1" as="geometry" />
        </mxCell>
        <mxCell id="uPqftv9LYSSAp6NvKLLp-13" value="Subida da condição no MMC" style="whiteSpace=wrap;html=1;fontSize=16;rounded=0;" vertex="1" parent="1">
          <mxGeometry x="-403" y="420" width="130" height="80" as="geometry" />
        </mxCell>
        <mxCell id="uPqftv9LYSSAp6NvKLLp-25" value="Divulgação para equipe de vendas" style="whiteSpace=wrap;html=1;fontSize=16;rounded=0;" vertex="1" parent="1">
          <mxGeometry x="-588" y="420" width="130" height="80" as="geometry" />
        </mxCell>
        <mxCell id="uPqftv9LYSSAp6NvKLLp-32" value="" style="edgeStyle=none;curved=1;rounded=0;orthogonalLoop=1;jettySize=auto;html=1;fontSize=12;endArrow=open;startSize=14;endSize=14;sourcePerimeterSpacing=8;targetPerimeterSpacing=8;" edge="1" parent="1" source="uPqftv9LYSSAp6NvKLLp-28" target="uPqftv9LYSSAp6NvKLLp-31">
          <mxGeometry relative="1" as="geometry" />
        </mxCell>
        <mxCell id="uPqftv9LYSSAp6NvKLLp-28" value="MMC" style="rounded=0;whiteSpace=wrap;html=1;fontSize=16;" vertex="1" parent="1">
          <mxGeometry x="150" y="138" width="236" height="92" as="geometry" />
        </mxCell>
        <mxCell id="uPqftv9LYSSAp6NvKLLp-34" value="" style="edgeStyle=none;curved=1;rounded=0;orthogonalLoop=1;jettySize=auto;html=1;fontSize=12;endArrow=open;startSize=14;endSize=14;sourcePerimeterSpacing=8;targetPerimeterSpacing=8;" edge="1" parent="1" source="uPqftv9LYSSAp6NvKLLp-31" target="uPqftv9LYSSAp6NvKLLp-33">
          <mxGeometry relative="1" as="geometry" />
        </mxCell>
        <mxCell id="uPqftv9LYSSAp6NvKLLp-31" value="Selecionado o cliente" style="whiteSpace=wrap;html=1;fontSize=16;rounded=0;" vertex="1" parent="1">
          <mxGeometry x="208" y="280" width="120" height="60" as="geometry" />
        </mxCell>
        <mxCell id="uPqftv9LYSSAp6NvKLLp-37" value="" style="edgeStyle=none;curved=1;rounded=0;orthogonalLoop=1;jettySize=auto;html=1;fontSize=12;endArrow=open;startSize=14;endSize=14;sourcePerimeterSpacing=8;targetPerimeterSpacing=8;" edge="1" parent="1" source="uPqftv9LYSSAp6NvKLLp-33" target="uPqftv9LYSSAp6NvKLLp-36">
          <mxGeometry relative="1" as="geometry" />
        </mxCell>
        <mxCell id="uPqftv9LYSSAp6NvKLLp-33" value="Tela de pedidos" style="whiteSpace=wrap;html=1;fontSize=16;rounded=0;" vertex="1" parent="1">
          <mxGeometry x="208" y="430" width="120" height="60" as="geometry" />
        </mxCell>
        <mxCell id="uPqftv9LYSSAp6NvKLLp-39" value="" style="edgeStyle=none;curved=1;rounded=0;orthogonalLoop=1;jettySize=auto;html=1;fontSize=12;endArrow=open;startSize=14;endSize=14;sourcePerimeterSpacing=8;targetPerimeterSpacing=8;" edge="1" parent="1" source="uPqftv9LYSSAp6NvKLLp-36" target="uPqftv9LYSSAp6NvKLLp-38">
          <mxGeometry relative="1" as="geometry" />
        </mxCell>
        <mxCell id="uPqftv9LYSSAp6NvKLLp-36" value="Pedido enviado" style="whiteSpace=wrap;html=1;fontSize=16;rounded=0;" vertex="1" parent="1">
          <mxGeometry x="208" y="540" width="120" height="60" as="geometry" />
        </mxCell>
        <mxCell id="uPqftv9LYSSAp6NvKLLp-41" value="" style="edgeStyle=none;curved=1;rounded=0;orthogonalLoop=1;jettySize=auto;html=1;fontSize=12;endArrow=open;startSize=14;endSize=14;sourcePerimeterSpacing=8;targetPerimeterSpacing=8;" edge="1" parent="1" source="uPqftv9LYSSAp6NvKLLp-38" target="uPqftv9LYSSAp6NvKLLp-40">
          <mxGeometry relative="1" as="geometry" />
        </mxCell>
        <mxCell id="uPqftv9LYSSAp6NvKLLp-38" value="Recebimento na industria" style="whiteSpace=wrap;html=1;fontSize=16;rounded=0;" vertex="1" parent="1">
          <mxGeometry x="208" y="670" width="120" height="60" as="geometry" />
        </mxCell>
        <mxCell id="uPqftv9LYSSAp6NvKLLp-42" style="edgeStyle=none;curved=1;rounded=0;orthogonalLoop=1;jettySize=auto;html=1;exitX=0;exitY=0;exitDx=0;exitDy=0;entryX=1;entryY=0.5;entryDx=0;entryDy=0;fontSize=12;endArrow=open;startSize=14;endSize=14;sourcePerimeterSpacing=8;targetPerimeterSpacing=8;" edge="1" parent="1" source="uPqftv9LYSSAp6NvKLLp-40" target="uPqftv9LYSSAp6NvKLLp-33">
          <mxGeometry relative="1" as="geometry" />
        </mxCell>
        <mxCell id="uPqftv9LYSSAp6NvKLLp-40" value="Retorno gerado" style="whiteSpace=wrap;html=1;fontSize=16;rounded=0;" vertex="1" parent="1">
          <mxGeometry x="414" y="540" width="120" height="60" as="geometry" />
        </mxCell>
        <mxCell id="uPqftv9LYSSAp6NvKLLp-44" style="edgeStyle=none;curved=1;rounded=0;orthogonalLoop=1;jettySize=auto;html=1;fontSize=12;endArrow=open;startSize=14;endSize=14;sourcePerimeterSpacing=8;targetPerimeterSpacing=8;" edge="1" parent="1" source="uPqftv9LYSSAp6NvKLLp-43" target="uPqftv9LYSSAp6NvKLLp-28">
          <mxGeometry relative="1" as="geometry" />
        </mxCell>
        <mxCell id="uPqftv9LYSSAp6NvKLLp-43" value="Cadastro de clientes" style="rounded=0;whiteSpace=wrap;html=1;fontSize=16;" vertex="1" parent="1">
          <mxGeometry x="188" y="20" width="160" height="80" as="geometry" />
        </mxCell>
      </root>
    </mxGraphModel>
  </diagram>
</mxfile>
